<svg xmlns="http://www.w3.org/2000/svg" x="0px" y="0px" width="100" height="100" viewBox="0 0 72 72"
style="fill:#FFFFFF;">
<path d="M36,12c13.255,0,24,10.745,24,24c0,13.255-10.745,24-24,24S12,49.255,12,36C12,22.745,22.745,12,36,12z M43,39	c1.657,0,3-1.343,3-3c0-1.657-1.343-3-3-3c-0.329,0-1.426,0-4,0c0-2.574,0-3.672,0-4c0-1.657-1.343-3-3-3c-1.657,0-3,1.343-3,3	c0,0.328,0,1.426,0,4c-2.574,0-3.671,0-4,0c-1.657,0-3,1.343-3,3c0,1.657,1.343,3,3,3c0.329,0,1.426,0,4,0c0,2.574,0,3.672,0,4	c0,1.657,1.343,3,3,3c1.657,0,3-1.343,3-3c0-0.328,0-1.426,0-4C41.574,39,42.671,39,43,39z"></path>
</svg>